<svg width="430" height="721" viewBox="0 0 430 721" fill="none" xmlns="http://www.w3.org/2000/svg">
<g clip-path="url(#clip0_124_7275)">
<path opacity="0.2" d="M-87.7433 -0.21888L1409.06 728.564L1408.16 729.002L-88.6424 0.21888L-87.7433 -0.21888Z" fill="white" fill-opacity="0.4"/>
<path opacity="0.2" d="M-175.791 42.6503L1321.02 771.433L1320.12 771.871L-176.69 43.088L-175.791 42.6503Z" fill="white" fill-opacity="0.4"/>
<path opacity="0.2" d="M-263.839 85.5204L1232.97 814.303L1232.07 814.741L-264.738 85.9581L-263.839 85.5204Z" fill="white" fill-opacity="0.4"/>
<path opacity="0.2" d="M-351.886 128.39L1144.92 857.172L1144.02 857.61L-352.785 128.827L-351.886 128.39Z" fill="white" fill-opacity="0.4"/>
<path opacity="0.2" d="M-439.934 171.26L1056.87 900.042L1055.97 900.48L-440.833 171.697L-439.934 171.26Z" fill="white" fill-opacity="0.4"/>
<path opacity="0.2" d="M-527.981 214.129L968.827 942.912L967.928 943.349L-528.88 214.567L-527.981 214.129Z" fill="white" fill-opacity="0.4"/>
<path opacity="0.2" d="M-616.028 256.999L880.78 985.782L879.88 986.219L-616.927 257.437L-616.028 256.999Z" fill="white" fill-opacity="0.4"/>
<path opacity="0.2" d="M-704.077 299.868L792.731 1028.65L791.832 1029.09L-704.976 300.306L-704.077 299.868Z" fill="white" fill-opacity="0.4"/>
<path opacity="0.2" d="M-792.124 342.738L704.683 1071.52L703.784 1071.96L-793.023 343.176L-792.124 342.738Z" fill="white" fill-opacity="0.4"/>
<path opacity="0.2" d="M-880.171 385.607L616.637 1114.39L615.737 1114.83L-881.07 386.045L-880.171 385.607Z" fill="white" fill-opacity="0.4"/>
<path opacity="0.2" d="M-968.219 428.476L528.589 1157.26L527.69 1157.7L-969.118 428.914L-968.219 428.476Z" fill="white" fill-opacity="0.4"/>
<path opacity="0.2" d="M-1056.27 471.347L440.542 1200.13L439.643 1200.57L-1057.16 471.784L-1056.27 471.347Z" fill="white" fill-opacity="0.4"/>
<path opacity="0.2" d="M-1144.31 514.216L352.494 1243L351.595 1243.44L-1145.21 514.653L-1144.31 514.216Z" fill="white" fill-opacity="0.4"/>
<path opacity="0.2" d="M-1232.36 557.086L264.446 1285.87L263.547 1286.31L-1233.26 557.524L-1232.36 557.086Z" fill="white" fill-opacity="0.4"/>
<path opacity="0.2" d="M-1320.41 599.955L176.399 1328.74L175.499 1329.18L-1321.31 600.393L-1320.41 599.955Z" fill="white" fill-opacity="0.4"/>
<path opacity="0.2" d="M-1408.46 642.825L88.3514 1371.61L87.4523 1372.05L-1409.36 643.263L-1408.46 642.825Z" fill="white" fill-opacity="0.4"/>
<path opacity="0.2" d="M-1496.5 685.694L0.30429 1414.48L-0.594802 1414.91L-1497.4 686.132L-1496.5 685.694Z" fill="white" fill-opacity="0.4"/>
<path opacity="0.2" d="M88.3518 85.9581L-1408.46 814.741L-1409.35 814.303L87.4527 85.5204L88.3518 85.9581Z" fill="white" fill-opacity="0.4"/>
<path opacity="0.2" d="M176.399 128.827L-1320.41 857.61L-1321.31 857.172L175.5 128.39L176.399 128.827Z" fill="white" fill-opacity="0.4"/>
<path opacity="0.2" d="M264.446 171.697L-1232.36 900.48L-1233.26 900.042L263.547 171.26L264.446 171.697Z" fill="white" fill-opacity="0.4"/>
<path opacity="0.2" d="M352.494 214.567L-1144.31 943.349L-1145.21 942.912L351.595 214.129L352.494 214.567Z" fill="white" fill-opacity="0.4"/>
<path opacity="0.2" d="M440.541 257.437L-1056.27 986.219L-1057.17 985.782L439.642 256.999L440.541 257.437Z" fill="white" fill-opacity="0.4"/>
<path opacity="0.2" d="M528.589 300.306L-968.219 1029.09L-969.118 1028.65L527.69 299.868L528.589 300.306Z" fill="white" fill-opacity="0.4"/>
<path opacity="0.2" d="M616.636 343.176L-880.171 1071.96L-881.07 1071.52L615.737 342.738L616.636 343.176Z" fill="white" fill-opacity="0.4"/>
<path opacity="0.2" d="M704.667 386.045L-792.141 1114.83L-793.04 1114.39L703.767 385.607L704.667 386.045Z" fill="white" fill-opacity="0.4"/>
<path opacity="0.2" d="M792.714 428.914L-704.093 1157.7L-704.992 1157.26L791.815 428.476L792.714 428.914Z" fill="white" fill-opacity="0.4"/>
<path opacity="0.2" d="M880.761 471.784L-616.046 1200.57L-616.945 1200.13L879.862 471.347L880.761 471.784Z" fill="white" fill-opacity="0.4"/>
<path opacity="0.2" d="M968.809 514.653L-527.998 1243.44L-528.898 1243L967.91 514.216L968.809 514.653Z" fill="white" fill-opacity="0.4"/>
<path opacity="0.2" d="M1056.86 557.524L-439.951 1286.31L-440.85 1285.87L1055.96 557.086L1056.86 557.524Z" fill="white" fill-opacity="0.4"/>
<path opacity="0.2" d="M1144.9 600.393L-351.904 1329.18L-352.803 1328.74L1144 599.955L1144.9 600.393Z" fill="white" fill-opacity="0.4"/>
<path opacity="0.2" d="M1232.95 643.263L-263.856 1372.05L-264.755 1371.61L1232.05 642.825L1232.95 643.263Z" fill="white" fill-opacity="0.4"/>
</g>
<defs>
<clipPath id="clip0_124_7275">
<rect width="2682" height="721" fill="white" transform="translate(-1585)"/>
</clipPath>
</defs>
</svg>
